# xmcd CD database file
#
# Track frame offsets:
#	150
#	26662
#	47057
#	71660
#	96317
#	121155
#	148167
#
# Disc length: 2306 seconds
#
# Revision: 3
# Processed by: cddbd v1.5.2PL0 Copyright (c) Steve Scherf et al.
# Submitted via: CDex 1.51
#
DISCID=63090007
DTITLE=Grover Washington, Jr. - Inside Moves
DYEAR=1984
DGENRE=Jazz
TTITLE0=Inside Moves
TTITLE1=Dawn Song
TTITLE2=Watching You Watching Me
TTITLE3=Secret Sounds
TTITLE4=Jet Stream
TTITLE5=When I Look At You
TTITLE6=Sassy Stew
EXTD=YEAR: 1984
EXTT0=
EXTT1=
EXTT2=
EXTT3=
EXTT4=
EXTT5=
EXTT6=
PLAYORDER=
